<mxfile host="app.diagrams.net" agent="Mozilla/5.0 (Windows NT 10.0; Win64; x64) AppleWebKit/537.36 (KHTML, like Gecko) Chrome/135.0.0.0 Safari/537.36" version="26.2.14">
  <diagram name="Page-1" id="CLYUfyJKUTIVPx1U3OYm">
    <mxGraphModel dx="1251" dy="660" grid="1" gridSize="10" guides="1" tooltips="1" connect="1" arrows="1" fold="1" page="1" pageScale="1" pageWidth="850" pageHeight="1100" math="0" shadow="0">
      <root>
        <mxCell id="0" />
        <mxCell id="1" parent="0" />
        <mxCell id="GSAfPTwG-RMAUFrqJqs5-1" value="" style="rounded=0;whiteSpace=wrap;html=1;fillColor=#dae8fc;gradientColor=#7ea6e0;strokeColor=#6c8ebf;" vertex="1" parent="1">
          <mxGeometry x="520" y="80" width="190" height="250" as="geometry" />
        </mxCell>
        <mxCell id="GSAfPTwG-RMAUFrqJqs5-2" value="" style="ellipse;whiteSpace=wrap;html=1;aspect=fixed;fillColor=#f8cecc;gradientColor=#ea6b66;strokeColor=#b85450;" vertex="1" parent="1">
          <mxGeometry x="575" y="90" width="80" height="80" as="geometry" />
        </mxCell>
        <mxCell id="GSAfPTwG-RMAUFrqJqs5-3" value="&lt;b&gt;SSH&lt;/b&gt;" style="text;html=1;align=center;verticalAlign=middle;resizable=0;points=[];autosize=1;strokeColor=none;fillColor=none;" vertex="1" parent="1">
          <mxGeometry x="590" y="115" width="50" height="30" as="geometry" />
        </mxCell>
        <mxCell id="GSAfPTwG-RMAUFrqJqs5-4" value="&lt;b&gt;facebook&lt;/b&gt;" style="text;html=1;align=center;verticalAlign=middle;resizable=0;points=[];autosize=1;strokeColor=none;fillColor=none;" vertex="1" parent="1">
          <mxGeometry x="575" y="50" width="80" height="30" as="geometry" />
        </mxCell>
        <mxCell id="GSAfPTwG-RMAUFrqJqs5-11" style="edgeStyle=orthogonalEdgeStyle;rounded=0;orthogonalLoop=1;jettySize=auto;html=1;" edge="1" parent="1" source="GSAfPTwG-RMAUFrqJqs5-5" target="GSAfPTwG-RMAUFrqJqs5-10">
          <mxGeometry relative="1" as="geometry" />
        </mxCell>
        <mxCell id="GSAfPTwG-RMAUFrqJqs5-5" value="&lt;b&gt;HTTPS&lt;/b&gt;" style="rounded=1;whiteSpace=wrap;html=1;fillColor=#fff2cc;gradientColor=#ffd966;strokeColor=#d6b656;" vertex="1" parent="1">
          <mxGeometry x="555" y="240" width="120" height="60" as="geometry" />
        </mxCell>
        <mxCell id="GSAfPTwG-RMAUFrqJqs5-7" style="edgeStyle=orthogonalEdgeStyle;rounded=0;orthogonalLoop=1;jettySize=auto;html=1;" edge="1" parent="1" source="GSAfPTwG-RMAUFrqJqs5-6" target="GSAfPTwG-RMAUFrqJqs5-2">
          <mxGeometry relative="1" as="geometry" />
        </mxCell>
        <mxCell id="GSAfPTwG-RMAUFrqJqs5-6" value="" style="points=[[0.35,0,0],[0.98,0.51,0],[1,0.71,0],[0.67,1,0],[0,0.795,0],[0,0.65,0]];verticalLabelPosition=bottom;sketch=0;html=1;verticalAlign=top;aspect=fixed;align=center;pointerEvents=1;shape=mxgraph.cisco19.user;fillColor=#005073;strokeColor=none;" vertex="1" parent="1">
          <mxGeometry x="230" y="105" width="50" height="50" as="geometry" />
        </mxCell>
        <mxCell id="GSAfPTwG-RMAUFrqJqs5-9" style="edgeStyle=orthogonalEdgeStyle;rounded=0;orthogonalLoop=1;jettySize=auto;html=1;entryX=0;entryY=0.5;entryDx=0;entryDy=0;" edge="1" parent="1" source="GSAfPTwG-RMAUFrqJqs5-8" target="GSAfPTwG-RMAUFrqJqs5-5">
          <mxGeometry relative="1" as="geometry" />
        </mxCell>
        <mxCell id="GSAfPTwG-RMAUFrqJqs5-8" value="" style="sketch=0;aspect=fixed;pointerEvents=1;shadow=0;dashed=0;html=1;strokeColor=none;labelPosition=center;verticalLabelPosition=bottom;verticalAlign=top;align=center;fillColor=#00188D;shape=mxgraph.azure.user" vertex="1" parent="1">
          <mxGeometry x="233" y="245" width="47" height="50" as="geometry" />
        </mxCell>
        <mxCell id="GSAfPTwG-RMAUFrqJqs5-10" value="&lt;b&gt;user DB&lt;/b&gt;" style="shape=cylinder3;whiteSpace=wrap;html=1;boundedLbl=1;backgroundOutline=1;size=15;fillColor=#e6d0de;gradientColor=#d5739d;strokeColor=#996185;" vertex="1" parent="1">
          <mxGeometry x="770" y="230" width="60" height="80" as="geometry" />
        </mxCell>
      </root>
    </mxGraphModel>
  </diagram>
</mxfile>
